<svg xmlns="http://www.w3.org/2000/svg" width="33" height="27" viewBox="0 0 33 27">
    <path fill="#FFF" fill-rule="evenodd" d="M4.242 15.94l.826-.115c3.66-.682 7.795-1.025 11.998-1.021 4.091.003 8.036.336 11.952 1.022l.855.13-.415 7.277-.417.666-1.204.647-.429.087a109.27 109.27 0 0 0-10.349-.5c-3.397 0-6.857.167-10.38.5l-.523-.147-.87-.648-.32-.57-.707-7.14-.017-.187zm-.147-1.567l-.902-9.627.773-.877H7.29l.43.135.988.681.342.593.383 4.16h1.039l1.308-7.077.534-.617c.231-.074.646-.178 1.223-.28a18.394 18.394 0 0 1 3.19-.268 25.671 25.671 0 0 1 4.834.473l.601.626 1.407 7.144h.783l.464-4.177.277-.527.73-.625.494-.185h3.717l.773.874-.808 9.57-.722-.127a70.642 70.642 0 0 0-12.21-1.046c-4.292-.003-8.517.347-12.273 1.047l-.699.13zm13.388 6.407l-1.236-1.28 1.236-1.28 1.236 1.28-1.236 1.28zm-.36 1.067h.72l1.93-2v-.694l-1.93-2h-.72l-1.931 2v.694l1.931 2z"/>
</svg>
